<svg width="108" height="44" viewBox="0 0 108 44" fill="none" xmlns="http://www.w3.org/2000/svg">
<path d="M0 27.6457C0 24.75 0.708037 22.1087 2.12411 19.7217C3.58739 17.2957 5.5935 15.3587 8.14243 13.9109C10.6914 12.463 13.5943 11.7391 16.8513 11.7391C19.9195 11.7391 22.6572 12.4239 25.0645 13.7935C27.5191 15.1239 29.4308 16.7478 30.7996 18.6652V0H35.6143V38.0348C35.6143 38.5826 35.7559 38.9935 36.0391 39.2674C36.3223 39.5022 36.7471 39.6391 37.3136 39.6783V42.8478C36.3695 42.9652 35.6379 43.0043 35.1187 42.9652C34.1274 42.9261 33.2542 42.5935 32.4989 41.9674C31.7437 41.3413 31.3661 40.6565 31.3661 39.913V36.9196C29.9028 38.9152 27.9203 40.5 25.4185 41.6739C22.9168 42.8478 20.3207 43.4348 17.6301 43.4348C15.0812 43.4348 12.7211 43.0043 10.5498 42.1435C8.42564 41.2826 6.56115 40.1087 4.95626 38.6217C3.39858 37.1348 2.17131 35.4522 1.27447 33.5739C0.424822 31.6565 0 29.6804 0 27.6457ZM30.7996 32.3413V22.8913C30.186 21.4826 29.1947 20.2109 27.8259 19.0761C26.457 17.9022 24.8993 16.9826 23.1528 16.3174C21.4535 15.613 19.7542 15.2609 18.055 15.2609C16.0725 15.2609 14.2788 15.613 12.6739 16.3174C11.069 16.9826 9.67651 17.9022 8.49645 19.0761C7.36359 20.25 6.49034 21.5804 5.87671 23.0674C5.26308 24.5543 4.95626 26.0804 4.95626 27.6457C4.95626 29.2891 5.28668 30.8543 5.94751 32.3413C6.65555 33.8283 7.6468 35.1587 8.92127 36.3326C10.1957 37.4674 11.659 38.3478 13.3111 38.9739C14.9632 39.6 16.7569 39.913 18.6922 39.913C19.9195 39.913 21.1939 39.7174 22.5156 39.3261C23.8373 38.9348 25.0881 38.4065 26.2682 37.7413C27.4955 37.037 28.5103 36.2152 29.3127 35.2761C30.1152 34.337 30.6108 33.3587 30.7996 32.3413Z" fill="white"/>
<path d="M55.1542 0.293478H59.8272L66.9076 15.0848L74.0588 0.293478H78.8027L70.023 18.0783L79.6523 36.9196L97.8489 0L106.898 8.5107C107.557 9.13125 107.118 10.2391 106.213 10.2391H98.7354L102.275 16.2559C102.756 17.0735 101.934 18.0387 101.05 17.6949L94.7354 15.2391L81.918 41.6739H77.5282L66.9784 21.0717L56.3579 41.6739H52.0388L30.7977 0H35.6143L54.3754 36.9196L63.9339 18.0783L55.1542 0.293478Z" fill="white"/>
</svg>
